<svg xmlns="http://www.w3.org/2000/svg" version="1.1" xmlns:xlink="http://www.w3.org/1999/xlink" xmlns:svgjs="http://svgjs.dev/svgjs" width="1500" height="1500" viewBox="0 0 1000 1000"><rect width="1500" height="1500" fill="transparent"></rect><g transform="matrix(0.7,0,0,0.7,150,106.25)"><svg viewBox="0 0 400 360" data-background-color="#ffffff" preserveAspectRatio="xMidYMid meet" height="1500" width="1500" xmlns="http://www.w3.org/2000/svg" xmlns:xlink="http://www.w3.org/1999/xlink"><g id="tight-bounds" transform="matrix(1,0,0,1,0,0)"><svg viewBox="0 0 320 360" height="360" width="320"><g><svg></svg></g><g><svg viewBox="0 0 320 360" height="360" width="320"><g><path xmlns="http://www.w3.org/2000/svg" d="M165.217 303.356c-1.404-1.755-2.809-0.702-2.808-1.755-8.426 2.106-24.223-3.511-30.894-2.809 1.404-2.106-2.106-1.755-2.106-3.159-1.404 2.106-2.809 0-4.915 0.702-2.106-5.266-10.532-1.404-11.585-8.075-4.915 0-6.67-2.809-11.586-5.617 0.351-0.351 0.702-0.351 1.054-0.702-2.457-0.351-2.457-1.755-4.564-1.755l0.702-1.405c-3.862-0.702-5.266-6.67-10.883-8.776-1.755-0.351-5.617-6.319-7.723-7.724-1.053-0.702-2.809-0.702-0.352-1.053-0.351-0.351-0.351-1.053 0-1.404-2.457-0.702-2.809-2.809-5.968-3.862-0.351-1.053 0.702-1.755 0-2.457-0.702-0.351-1.755 0.351-2.457 0-0.351 6.319 6.67 7.021 8.777 12.287-0.702-0.702-1.755-2.809-2.458-1.404-0.351 1.053 2.809 4.915 2.809 2.808-1.053 0.702-1.404-1.053-0.703-1.404 1.053 1.755 3.16 1.404 3.16 2.809-1.053 1.053-2.457-1.053-2.106 0.702 3.16 1.755 2.809 3.511 4.563 5.968-1.404-1.755-1.755 1.404-3.159 0-0.351-5.266-6.319-4.213-6.319-9.479-0.702-1.755-1.404-0.351-2.458-1.053 1.404-1.404-4.213-6.319-4.213-4.564-1.755-2.106-0.702-2.809-1.053-4.213-1.404-0.351-0.351 1.404-1.404 0.351 1.404-2.457-1.755-5.617-3.862-8.074l1.405-0.702c-2.457-1.404-2.809-4.213-4.564-7.373-2.106 3.16 4.213 10.181 3.159 11.585 0 0.351 2.457 3.16 3.16 4.564 2.809 4.915 4.915 10.883 8.777 13.692-0.702-0.351-0.351-2.457 0.702-1.404 0 1.053-0.702 2.106-0.702 3.159 2.106 2.106 3.862 3.862 5.968 5.968-4.564-2.809-9.128-5.617-12.288-9.83 1.755-0.351 3.511 2.809 4.915 2.458-3.511-2.809-2.457-3.862-3.861-7.372-1.404-1.053 0.351 1.404-1.054 1.755-4.564-4.213-8.075-6.67-10.181-10.532 0.351-0.351 0.702-0.702 0.703-1.404-0.351-0.351-0.351-0.351-0.703-0.702 2.106 2.106 2.809 3.862 5.266 4.212-1.053-1.053 0-1.404-1.404-2.457-0.702-1.404-1.755 0.702-2.457-0.351 0.702-1.053 0-2.457 0-3.511-0.702 0-1.404 0-1.756-1.053-0.702-0.351-1.053 0-1.404 0.702-0.351-0.351-0.351-1.053-0.702-1.404v-0.351c-0.351-0.351-0.702-1.053-1.053-1.405-2.809-7.372-4.564-17.202-8.426-23.521 1.053-4.213-0.702-12.638-1.755-14.745 1.053-1.755 0.351-9.83-0.351-11.234-1.755 0.702 0.351 4.564-1.404 5.617-1.755-7.723 1.053-16.5 0.351-23.521 0.702 0 1.404 0 1.404-0.351-1.053-1.053 0.702-3.16 0.351-5.617 1.404-3.16-3.16 4.564-3.16 7.723-0.351 0.702-1.755 0-1.404 1.756 0 2.457 0.702 7.372-0.702 10.883-0.702 0-0.702-0.702-1.404-0.351-0.351 1.755-0.702 3.862-1.053 5.617-0.351-0.702-0.702-1.755-0.703-2.107-1.755-8.777 0-18.958-0.702-26.33 1.404 0 1.404-2.106 2.458-2.808-0.351 2.809-1.053 6.319 0.702 7.021 1.404-13.692 4.213-28.787 10.532-43.532 4.564-10.883 11.234-21.766 19.308-30.543 0.702 1.053-0.351 3.511 0 4.564 7.021-7.372 11.585-16.149 19.309-21.064 0.351 1.755-3.16 3.16-3.16 4.564 3.16-3.16 4.213-2.106 7.724-3.159 1.053-1.404-1.404 0-1.756-1.405 2.106-1.404 3.511-3.16 4.915-4.212 0 0.351-0.351 0.351-0.351 0.702 3.862-1.053 4.213-3.16 7.022-3.862-0.351-0.351-1.053-0.702-2.107-0.351 0.702-0.351 1.755-1.053 2.809-1.404-0.351 0-0.351 0.351-0.702 0.351 2.106-1.053 0.351 0.351 0.351 1.053 0.351 0 0.702-0.351 0.702-0.351-2.106 1.404-3.511 2.106-4.213 4.564 1.053-0.702 1.404 0 2.809-1.054 1.404-0.702-0.351-1.755 0.702-2.457 1.053 0.702 2.457 0.351 3.51 0.351 0-0.702 0.351-1.404 1.054-1.755 0.351-0.702 0-1.053-0.352-1.053 0.351-0.351 0.702-0.351 1.405-0.703 0 0 0.351 0 0.351 0.351 5.968-2.809 12.638-5.266 18.957-7.372 3.862-0.351 8.777-0.351 10.883-2.808-0.702 0-1.404 0.351-1.755 0 0.351 0 1.053-0.351 1.404-0.351 0.702 0.702 1.755 0 0.702 1.404 0.351 0 0.351 0 0.703-0.351 0 0.351 0 0.351 0.351 0.702 0.351 0 0.702-0.351 1.053-1.053 0.351 0 0.702 0 1.053-0.351l-0.351 0.351c2.809-0.702 5.266-0.351 9.128-1.054 0-0.351 0-0.702 0-1.053 0.702 0 1.053-0.351 1.755-0.351v0.351c1.404-0.702 2.809 0.702 2.808 0 0.351 0 0.351 0 0.703 0 0 0.702-0.351 1.053-0.351 1.405 1.755 0 2.809 0 3.51-1.054-0.351-0.351-0.702-0.351-1.053-0.351 0.702 0 1.404-0.351 2.106-0.702 1.053 0.351 1.404 0.702 1.405 2.107 1.755-3.16 7.372 0.702 9.829 0 1.053 0 0.702-1.404 1.405-2.107 0.351 0 0.702 0 1.053 0 1.755 1.404 4.213 2.809 7.372 3.16-2.809-0.702 0.351-1.053 0.702-1.405-0.702 0-0.702-0.351-0.702-0.702 1.053 0 2.106 0.351 3.16 0.351 0 0.702 0.351 1.053 1.053 1.054 0.702 0 0.702-0.351 0.702-1.054 1.053 0 1.755 0 2.809 0.351-0.351 1.404 1.755 1.755 2.457 2.809-2.809-0.702-5.968-1.755-7.021 0 11.234 2.457 23.521 5.968 35.457 11.936 0 0 0 0 0 0.351h0.352c2.106 1.053 4.213 2.106 6.319 3.16 1.404 0.702 2.457 1.404 3.861 2.457 0 0.351 0 0.702 0.703 0.702h0.351c1.404 1.053 2.809 1.755 4.212 2.809 1.404 2.106 2.809 4.915 5.266 4.213 5.266 8.075 10.883 11.234 15.447 19.659 0.351-1.404 1.404 3.16 3.16 3.511-2.809-0.351 1.755 1.755-1.053 1.404 2.457 2.457 3.16 3.511 3.51 6.319-0.702-1.404-1.053-1.755-1.404-0.351-0.351 2.106 2.457-0.351 3.511 1.756-2.106 0-1.404 1.404-1.054 3.159 1.053-1.053 0.702-2.106 1.756-1.755 1.404 1.404-0.702 1.755-0.351 2.809 1.053-1.404 1.404-0.702 2.808 0-1.755 0.351 1.053 2.809-1.053 1.755 1.404 1.755 1.755 2.809 1.053 4.564-1.404-2.106-0.351-3.511-2.457-3.16 4.213 3.511 2.106 11.585 7.021 12.287-3.16 0.702 0 2.106-1.755 2.458 2.106 0.702 1.053 3.511 3.51 4.213-0.351 1.755-1.053 2.809-1.404 4.563 1.053 1.404 1.404 4.213 3.16 4.564-1.053 1.053-0.351 3.862-1.404 4.915 1.404-0.702 2.106-0.702 3.159 0.702-1.755 1.404-0.351 2.809-1.404 3.16 3.16 8.075-0.702 24.575 1.053 30.894-2.106-1.053-1.404 2.457-2.808 2.457 2.457 1.053 0.351 2.809 1.404 4.564-4.915 2.809 0 10.532-6.67 12.287 0.702 4.915-2.106 7.021-4.213 12.288-0.351-0.351-0.351-0.702-0.702-1.054-0.351 2.457-1.755 2.809-1.054 4.915l-1.404-0.702c0 3.862-5.968 5.968-7.372 11.936-0.351 1.755-5.617 6.319-7.022 8.777-0.702 1.053-0.351 2.809-1.053 0.351-0.351 0.351-1.053 0.351-1.404 0.351-0.351 2.457-2.457 3.16-3.16 6.319-0.702 0.351-1.755-0.702-2.457 0.351 0 0.702 0.702 1.755 0.351 2.458 6.319-0.351 6.319-7.723 11.234-10.181-0.351 1.053-2.457 2.106-1.053 2.808 1.053 0 4.213-3.511 2.457-3.159 1.053 0.702-1.053 1.404-1.404 1.053 1.755-1.404 1.053-3.16 2.458-3.511 1.053 0.702-1.053 2.457 1.053 2.107 1.404-3.16 3.16-3.511 5.266-5.266-1.404 1.404 1.755 1.755 0.351 3.159-5.266 1.053-3.511 7.021-8.777 7.724-1.404 1.053-0.351 1.404-0.702 2.457-1.755-1.053-5.617 4.915-4.213 4.564-1.755 1.755-2.809 1.053-4.212 1.404-0.351 1.404 1.404 0.351 0.702 1.405-2.457-1.053-5.617 2.457-7.724 4.915l-1.053-1.054c-1.053 2.809-3.862 3.16-7.021 5.266 3.511 1.755 9.479-5.617 11.234-4.564 0.351 0 3.16-2.809 4.213-3.861 4.564-3.511 10.181-6.319 12.287-10.181-0.351 0.702-2.457 0.702-1.404-0.351 1.053-0.351 2.106 0.351 3.159 0.351 5.617-7.723 12.638-14.043 17.905-23.17 0.351-0.351 0.702-1.053 1.053-1.756-0.702 2.106-1.755 3.862-2.458 5.968-5.617 3.862-7.723 15.096-14.393 16.851 0.351 3.862-3.16 4.915-4.915 9.479-1.053 1.404-1.755-1.053-2.809 0.702 1.053 4.915-8.777 4.564-8.425 9.128-0.702 0.351-1.755 0.702-2.458 1.404h-0.351c-0.351 0.351-0.351 0.351-0.702 0.702-1.755 1.053-3.16 2.106-4.564 3.16-4.915 2.809-11.585 4.915-16.851 7.723v-0.351c-1.404 0.702-3.16 0.351-2.809 1.756-1.053 0.702-2.106 1.404-3.159 2.106-0.351 0-0.351 0-0.702 0 0 0-0.351-0.351-0.702-0.351-0.702 0-0.702 0-1.054 0.351-4.564 0.351-10.532 2.457-12.287 3.862-1.755-1.053-9.83 0.702-11.234 1.404 0.702 1.053 2.809 0 4.564 0-1.053 0.351-2.106 0.702-2.458 1.404-0.351 0-0.351 0-0.702 0-0.351-1.053-1.404 0-1.755-0.351h0.351c-0.351-1.404-1.404-2.106-3.16-1.755 0 0.702 0 1.053-0.351 1.755 0.702 0 2.809-1.053 2.809 0-0.351 0-0.351 0.351 0 0.351-0.702 0.702-1.755 0.702-2.458 1.054-1.404 0-3.16 0-4.563 0-0.351-0.351-0.702-0.351-1.405-0.703-0.351 0.351-1.053 0.351-1.404 0.703-2.106 0-4.564 0.351-6.319 0.702 0-0.702 0-1.404-0.702-1.405-1.053 1.404-3.16-0.351-5.617 0.352-2.457-0.702 1.404 1.053 4.915 1.755-0.351 0.351-0.702 0.702-1.756 1.053M116.068 308.271c-4.915-4.564-15.096-6.67-16.851-10.181-2.809-0.351-7.021-5.617-10.532-6.319 1.755 0 0.351-1.053 0-1.755-0.702 0.702-1.404 1.053-2.106 1.053 0-2.809-2.809-4.564-5.266-6.319 1.755 1.053 3.16 1.755 5.266 2.106 0-0.702 0-1.404 0.702-1.404 2.457 2.457 5.266 4.915 8.425 7.372 4.213 3.862 25.979 13.692 29.841 15.447 0 0-0.702 1.404-0.351 1.404 1.755 1.053 3.16-1.053 3.511 1.404-5.617 0.702-7.723-3.16-12.639-2.808M277.909 226.824v0.351 0c-0.351 0 0-0.351 0-0.351M136.079 64.281c-0.351 0.351-0.702 0.351-0.702 0.351 0-0.351 0.351-0.351 0.702-0.351M129.409 66.036c0 0.351 0 0.351 0 0 0 0.351 0 0.351 0 0 0 0.351 0 0 0 0M106.238 73.408v0c0.351-0.351 0.351-0.351 0.703-0.351-0.351 0-0.702 0.351-0.703 0.351M162.409 61.823c-0.702 0-1.053 0-1.404-0.351 0.351 0 0.702 0 1.053 0h0.351c0 0 0 0 0 0.351M168.728 62.525c-0.351-0.351-1.404-0.702-2.457-0.702 0-0.351 0.351-0.702 0.351-0.702 0.351 0 0.702 0 1.053 0 0 0 0.351 0 0.351 0.351 0 0 0 0 0-0.351 0.351 0 0.351 0 0.702 0 0.351 0.702 0.702 1.053 0 1.404M180.313 63.579c-1.755 0.351-2.809-0.351-4.564-1.405 1.053 0 2.457 0.351 3.511 0.702 0.351 0 0.702 0.351 1.053 0.703M305.292 113.43c-0.702 0.351-1.053 0.351-1.755-1.053-5.617-11.936-15.798-29.138-30.543-43.532-14.394-14.745-33.702-26.681-51.255-33.001 1.053 0.351 2.457 1.053 1.755 1.756-15.447-5.968-30.192-9.479-44.234-10.883-37.915-5.968-77.585 2.106-108.128 21.766 0.351 0.702 0.351 1.053-0.702 1.755-11.234 7.021-27.032 19.309-39.671 35.458-12.638 16.149-22.468 36.511-26.681 54.766 0.351-1.053 0.702-2.809 1.405-2.107-9.128 36.16-6.67 67.053 5.968 93.735 0.702-0.702-1.755-4.213 0.351-3.862 1.404 3.862 3.16 8.075 5.266 11.936 2.457 5.617 5.266 12.989 9.128 14.745-9.83-19.309-16.5-41.426-17.203-61.085 1.404 2.809 1.053 8.777 3.16 11.234 0.702-13.34-2.457-31.245 2.106-43.883-1.053 6.67-1.755 15.798-1.053 24.925 0 6.67 3.16 25.277 5.266 27.032-0.351-0.351-0.351-2.106 0-2.106 1.053 2.106-1.404 3.16 0.351 3.511 0-0.702 0.351-0.702 0.702-0.703 3.511 7.723 8.075 19.66 11.585 25.628 4.213 7.723 9.83 14.745 16.149 21.064 0 0.351 0.351 0.351 0.352 0.702 0.702 1.755 3.16 3.862 3.861 5.266 0.351 0.702-0.351 1.755 0 2.458 5.266 9.83 12.989 19.66 22.468 27.383 5.968 7.021 15.447 14.394 27.032 20.713 11.234 5.968 24.223 10.883 36.16 13.691 8.426 2.106 18.606 2.457 24.926 3.862 8.426 1.755 23.17-0.702 30.542-2.107 44.234-6.67 88.117-36.862 110.235-80.393 22.819-43.883 22.117-97.596 2.457-138.671" fill="#0063db" fill-rule="nonzero" stroke="none" stroke-width="1" stroke-linecap="butt" stroke-linejoin="miter" stroke-miterlimit="10" stroke-dasharray="" stroke-dashoffset="0" font-family="none" font-weight="none" font-size="none" text-anchor="none" style="mix-blend-mode: normal" data-fill-palette-color="tertiary"></path></g><g transform="matrix(1,0,0,1,80,147.734577501296)"><svg viewBox="0 0 160 64.53084499740798" height="64.53084499740798" width="160"><g><svg viewBox="0 0 160 64.53084499740798" height="64.53084499740798" width="160"><g><svg viewBox="0 0 160 64.53084499740798" height="64.53084499740798" width="160"><g><svg viewBox="0 0 160 64.53084499740798" height="64.53084499740798" width="160"><g id="textblocktransform"><svg viewBox="0 0 160 64.53084499740798" height="64.53084499740798" width="160" id="textblock"><g><svg viewBox="0 0 160 64.53084499740798" height="64.53084499740798" width="160"><g transform="matrix(1,0,0,1,0,0)"><svg width="160" viewBox="0.10000000149011612 -37.849998474121094 96.44000244140625 38.89999771118164" height="64.53084499740798" data-palette-color="#0063db"><path d="M6.75 0.35Q6 0.35 5.58-0.38 5.15-1.1 5.15-2.15L5.15-2.15Q5.15-3.8 5.35-6.2L5.35-6.2 5.45-7.5 5.55-10.15Q5.55-11.9 5.2-17.95L5.2-17.95Q4.85-24 4.85-25.75L4.85-25.75Q4.85-25.9 4.88-26.33 4.9-26.75 4.9-27.65L4.9-27.65Q4.95-28.65 4.95-30.1L4.95-30.1Q4.95-33.75 4.45-34.75L4.45-34.75Q4.15-34.75 3.15-34.6L3.15-34.6 1.75-34.5Q1.1-34.5 0.6-34.88 0.1-35.25 0.1-35.85L0.1-35.85Q0.1-36.45 1.3-36.9L1.3-36.9Q3.05-37.5 7.25-37.75L7.25-37.75Q8.95-37.85 9.3-37.85L9.3-37.85Q9.9-37.85 10.4-37.45 10.9-37.05 10.9-36.45L10.9-36.45Q10.9-35.85 10.48-35.48 10.05-35.1 9.4-35.1L9.4-35.1 8.5-35.15Q8.1-35.2 7.6-35.2L7.6-35.2 7.1-35.2Q7.45-31.8 7.45-29.05L7.45-29.05 7.4-25.85Q7.35-24.4 7.35-22.6L7.35-22.6Q7.35-20.2 7.55-16.85L7.55-16.85Q7.8-12.7 7.8-11.1L7.8-11.1Q7.8-9.2 8-6.6L8-6.6Q8.2-3.95 8.2-2.1L8.2-2.1Q8.2 0.35 6.75 0.35L6.75 0.35ZM18.65-0.05Q14.3-0.05 14.3-1.55L14.3-1.55Q14.3-2.75 15.85-2.75L15.85-2.75 16.4-2.75 16.9-2.7Q17.3-2.7 17.45-2.95 17.6-3.2 17.6-3.85L17.6-3.85Q17.6-4.7 17.5-6.5L17.5-6.5Q17.35-7.7 17.15-10.8L17.15-10.8Q16.7-18.45 16.7-22.35L16.7-22.35Q16.7-23.75 16.75-24.9L16.75-24.9 16.8-27.45Q16.8-29.1 16.65-30.2L16.65-30.2Q15.85-30 15.5-30L15.5-30Q14.3-30 14.3-31.2L14.3-31.2Q14.3-31.8 15.05-32.25 15.8-32.7 16.95-32.9L16.95-32.9Q18.95-33.3 20.5-33.3L20.5-33.3Q21.1-33.3 21.52-32.88 21.95-32.45 21.95-31.9L21.95-31.9Q21.95-31.35 21.62-30.95 21.3-30.55 20.8-30.55L20.8-30.55Q20.5-30.55 20.3-30.6L20.3-30.6 19.9-30.6Q19.4-30.6 19.17-30.38 18.95-30.15 18.95-29.55L18.95-29.55Q18.95-24.7 19.55-14.95L19.55-14.95Q19.65-13.15 19.95-9.65L19.95-9.65Q20.2-7.35 20.2-4.95L20.2-4.95 20.2-3.05Q20.5-3.1 21.2-3.1L21.2-3.1Q23.3-3.1 23.3-1.35L23.3-1.35 23.3-1.05 22.05-0.2Q22-0.2 21.72-0.18 21.45-0.15 20.7-0.15L20.7-0.15Q19.1-0.05 18.65-0.05L18.65-0.05ZM31.09 1.05Q30.09 1.05 29.34-1.95L29.34-1.95Q28.7-4.6 28.27-8.53 27.84-12.45 27.39-18.45L27.39-18.45Q27.14-22.35 26.7-26.8L26.7-26.8Q26.34-30.5 25.84-31.55L25.84-31.55Q26.29-32.45 27.3-32.45L27.3-32.45Q28.89-32.45 28.89-29.15L28.89-29.15Q28.89-25.25 29.95-17.75L29.95-17.75Q31-10.3 31.14-6.9L31.14-6.9 31.39-8.6Q31.89-11.95 32.27-14.93 32.64-17.9 32.89-21.35L32.89-21.35Q33.24-25.2 33.24-28.95L33.24-28.95 34.59-29.55Q35.25-29.55 35.67-29.23 36.09-28.9 36.09-28.3L36.09-28.3 36.09-27.9Q36.89-25.1 37.42-21.78 37.95-18.45 38.34-13.95L38.34-13.95Q38.64-10.5 39.05-7.5L39.05-7.5Q40-14.2 40-24L40-24Q40-25.55 40.39-27.8L40.39-27.8Q40.75-30.1 40.75-31.55L40.75-31.55Q40.59-32 40.59-32.4L40.59-32.4Q40.59-33.6 42.09-33.6L42.09-33.6Q42.7-33.6 43.05-33.3 43.39-33 43.39-32.45L43.39-32.45 43.39-31.7Q43.39-30.95 43.25-30.4L43.25-30.4 43.25-30.15Q42.59-28.15 42.59-25.55L42.59-25.55 42.59-21.9Q42.59-18.75 41.84-12.5L41.84-12.5Q41.05-6.4 41.05-3.4L41.05-3.4 41.05-2.5Q41.05-1.35 40.8-0.55L40.8-0.55Q40.5 0.45 39.34 0.45L39.34 0.45Q38.55 0.45 38.12-0.08 37.7-0.6 37.7-1.4L37.7-1.4Q37.7-5.45 36.84-11.9L36.84-11.9Q36.39-14.8 35.89-17.75L35.89-17.75 35.09-23Q34.89-21.55 34.89-20.15L34.89-20.15Q34.89-17.35 34.5-12.75 34.09-8.15 33.24-3.8L33.24-3.8Q32.3 1.05 31.09 1.05L31.09 1.05ZM58.74 0.45Q57.59 0.45 57.04 0.1 56.49-0.25 56.49-1.2L56.49-1.2Q56.49-2.7 55.99-6.3L55.99-6.3 55.79-7.35 50.84-8.1Q50.54-6.95 49.99-3.45L49.99-3.45Q49.69-1 49.04-0.2L49.04-0.2Q48.69 0.25 48.04 0.25L48.04 0.25Q47.44 0.25 46.94-0.13 46.44-0.5 46.44-1.05L46.44-1.05 46.54-1.3 46.59-1.5Q49.89-14.35 51.59-26.85L51.59-26.85Q51.59-27.05 51.64-27.53 51.69-28 51.74-28.9L51.74-28.9Q51.89-30.75 52.07-31.85 52.24-32.95 52.64-33.5L52.64-33.5 54.34-33.5Q55.04-33.5 55.54-33.18 56.04-32.85 56.04-32.25L56.04-32.25Q56.04-28.45 57.09-20.95L57.09-20.95Q58.09-13.25 58.09-10.15L58.09-10.15Q58.09-9.85 58.34-8.6L58.34-8.6Q58.59-7.45 58.59-7.1L58.59-7.1Q58.59-6.75 59.09-4.1L59.09-4.1Q59.54-1.7 59.54-1L59.54-1 59.54-0.95Q59.54 0.15 58.74 0.45L58.74 0.45ZM55.44-9.15Q55.29-9.9 55.29-11L55.29-11Q55.29-15.5 54.49-22.5L54.49-22.5 53.99-27.7Q51.84-15.95 51.04-9.95L51.04-9.95Q51.79-9.45 55.44-9.15L55.44-9.15ZM66.34-0.05Q61.99-0.05 61.99-1.55L61.99-1.55Q61.99-2.75 63.54-2.75L63.54-2.75 64.09-2.75 64.59-2.7Q64.99-2.7 65.14-2.95 65.29-3.2 65.29-3.85L65.29-3.85Q65.29-4.7 65.19-6.5L65.19-6.5Q65.04-7.7 64.84-10.8L64.84-10.8Q64.39-18.45 64.39-22.35L64.39-22.35Q64.39-23.75 64.44-24.9L64.44-24.9 64.49-27.45Q64.49-29.1 64.34-30.2L64.34-30.2Q63.54-30 63.19-30L63.19-30Q61.99-30 61.99-31.2L61.99-31.2Q61.99-31.8 62.74-32.25 63.49-32.7 64.64-32.9L64.64-32.9Q66.64-33.3 68.19-33.3L68.19-33.3Q68.79-33.3 69.22-32.88 69.64-32.45 69.64-31.9L69.64-31.9Q69.64-31.35 69.32-30.95 68.99-30.55 68.49-30.55L68.49-30.55Q68.19-30.55 67.99-30.6L67.99-30.6 67.59-30.6Q67.09-30.6 66.87-30.38 66.64-30.15 66.64-29.55L66.64-29.55Q66.64-24.7 67.24-14.95L67.24-14.95Q67.34-13.15 67.64-9.65L67.64-9.65Q67.89-7.35 67.89-4.95L67.89-4.95 67.89-3.05Q68.19-3.1 68.89-3.1L68.89-3.1Q70.99-3.1 70.99-1.35L70.99-1.35 70.99-1.05 69.74-0.2Q69.69-0.2 69.42-0.18 69.14-0.15 68.39-0.15L68.39-0.15Q66.79-0.05 66.34-0.05L66.34-0.05ZM76.59 0.5Q75.49 0.5 75.24-0.45L75.24-0.45Q75.04-1.05 75.04-2.15L75.04-2.15Q75.04-4.3 75.24-7.45L75.24-7.45Q75.49-10.45 75.49-12.8L75.49-12.8Q75.49-15.45 75.64-20.75L75.64-20.75 75.74-28.65Q75.74-29.1 75.59-30L75.59-30 75.44-31.25 75.44-31.5Q75.44-32.65 75.79-33.2 76.14-33.75 77.09-33.75L77.09-33.75Q78.39-33.75 79.94-33 81.49-32.25 82.19-31.1L82.19-31.1Q83.64-28.7 83.64-25.1L83.64-25.1Q83.64-22.4 83.19-20.58 82.74-18.75 81.64-17.2L81.64-17.2Q82.99-15.9 83.46-13.88 83.94-11.85 83.94-8.8L83.94-8.8Q83.94-5.75 82.89-3.5L82.89-3.5Q81.69-0.95 79.39 0L79.39 0Q77.99 0.5 76.59 0.5L76.59 0.5ZM78.19-18.65Q80.79-18.7 80.79-24.7L80.79-24.7Q80.79-31.15 78.74-31.45L78.74-31.45Q78.19-30.3 78.19-26.05L78.19-26.05 78.19-18.65ZM77.89-2.05Q79.49-2.4 80.39-3.95 81.29-5.5 81.29-7.5L81.29-7.5Q81.29-9.6 81.04-11.2L81.04-11.2Q80.84-12.45 80.51-13.28 80.19-14.1 79.64-14.8L79.64-14.8Q79.04-15.55 78.24-15.7L78.24-15.7Q78.04-12.85 78.04-8.15L78.04-8.15Q78.04-7.85 77.94-6.25L77.94-6.25 77.84-4.55Q77.84-4.45 77.89-4.4L77.89-4.4 77.89-4.3 77.89-2.05ZM91.89-0.05Q87.54-0.05 87.54-1.55L87.54-1.55Q87.54-2.75 89.09-2.75L89.09-2.75 89.64-2.75 90.14-2.7Q90.54-2.7 90.69-2.95 90.84-3.2 90.84-3.85L90.84-3.85Q90.84-4.7 90.74-6.5L90.74-6.5Q90.59-7.7 90.39-10.8L90.39-10.8Q89.94-18.45 89.94-22.35L89.94-22.35Q89.94-23.75 89.99-24.9L89.99-24.9 90.04-27.45Q90.04-29.1 89.89-30.2L89.89-30.2Q89.09-30 88.74-30L88.74-30Q87.54-30 87.54-31.2L87.54-31.2Q87.54-31.8 88.29-32.25 89.04-32.7 90.19-32.9L90.19-32.9Q92.19-33.3 93.74-33.3L93.74-33.3Q94.34-33.3 94.76-32.88 95.19-32.45 95.19-31.9L95.19-31.9Q95.19-31.35 94.86-30.95 94.54-30.55 94.04-30.55L94.04-30.55Q93.74-30.55 93.54-30.6L93.54-30.6 93.14-30.6Q92.64-30.6 92.41-30.38 92.19-30.15 92.19-29.55L92.19-29.55Q92.19-24.7 92.79-14.95L92.79-14.95Q92.89-13.15 93.19-9.65L93.19-9.65Q93.44-7.35 93.44-4.95L93.44-4.95 93.44-3.05Q93.74-3.1 94.44-3.1L94.44-3.1Q96.54-3.1 96.54-1.35L96.54-1.35 96.54-1.05 95.29-0.2Q95.24-0.2 94.96-0.18 94.69-0.15 93.94-0.15L93.94-0.15Q92.34-0.05 91.89-0.05L91.89-0.05Z" opacity="1" transform="matrix(1,0,0,1,0,0)" fill="#0063db" class="wordmark-text-0" data-fill-palette-color="primary" id="text-0"></path></svg></g></svg></g></svg></g></svg></g></svg></g></svg></g></svg></g></svg></g><defs></defs></svg><rect width="320" height="360" fill="none" stroke="none" visibility="hidden"></rect></g></svg></g></svg>